<?xml version="1.0" encoding="utf-8" standalone="no"?>
<!DOCTYPE svg PUBLIC "-//W3C//DTD SVG 1.1//EN"
  "http://www.w3.org/Graphics/SVG/1.1/DTD/svg11.dtd">
<svg xmlns:xlink="http://www.w3.org/1999/xlink" width="510.90547pt" height="168.969779pt" viewBox="0 0 510.90547 168.969779" xmlns="http://www.w3.org/2000/svg" version="1.1">
 <metadata>
  <rdf:RDF xmlns:dc="http://purl.org/dc/elements/1.1/" xmlns:cc="http://creativecommons.org/ns#" xmlns:rdf="http://www.w3.org/1999/02/22-rdf-syntax-ns#">
   <cc:Work>
    <dc:type rdf:resource="http://purl.org/dc/dcmitype/StillImage"/>
    <dc:date>2026-08-01T11:57:35.275490</dc:date>
    <dc:format>image/svg+xml</dc:format>
    <dc:creator>
     <cc:Agent>
      <dc:title>Matplotlib v3.11.1, https://matplotlib.org/</dc:title>
     </cc:Agent>
    </dc:creator>
   </cc:Work>
  </rdf:RDF>
 </metadata>
 <defs>
  <style type="text/css">*{stroke-linejoin: round; stroke-linecap: butt}</style>
 </defs>
 <g id="figure_1">
  <g id="patch_1">
   <path d="M 0 168.969779 
L 510.90547 168.969779 
L 510.90547 0 
L 0 0 
z
" style="fill: #ffffff"/>
  </g>
  <g id="axes_1">
   <g id="patch_2">
    <path d="M 58.847656 128.967435 
L 251.056563 128.967435 
L 251.056563 22.318125 
L 58.847656 22.318125 
z
" style="fill: #ffffff"/>
   </g>
   <g id="FillBetweenPolyCollection_1">
    <defs>
     <path id="mfbc74fe201" d="M 64.287531 -79.225623 
L 64.287531 -44.85004 
L 245.616688 -44.85004 
L 245.616688 -79.225623 
L 245.616688 -79.225623 
L 64.287531 -79.225623 
z
" style="stroke: #0f4d92; stroke-opacity: 0.1"/>
    </defs>
    <g clip-path="url(#p5a29d24d81)">
     <use xlink:href="#mfbc74fe201" x="0" y="168.969779" style="fill: #0f4d92; fill-opacity: 0.1; stroke: #0f4d92; stroke-opacity: 0.1"/>
    </g>
   </g>
   <g id="matplotlib.axis_1">
    <g id="xtick_1">
     <g id="line2d_1">
      <path d="M 79.398294 128.967435 
L 79.398294 22.318125 
" clip-path="url(#p5a29d24d81)" style="fill: none; stroke: #eeeeee; stroke-width: 0.5; stroke-linecap: square"/>
     </g>
     <g id="line2d_2">
      <defs>
       <path id="m69ef4bdbd2" d="M 0 0 
L 0 3.5 
" style="stroke: #000000; stroke-width: 0.8"/>
      </defs>
      <g>
       <use xlink:href="#m69ef4bdbd2" x="79.398294" y="128.967435" style="stroke: #000000; stroke-width: 0.8"/>
      </g>
     </g>
     <g id="text_1">
      <!-- −0.2 -->
      <g transform="translate(67.256888 143.565091) scale(0.1 -0.1)">
       <defs>
        <path id="DejaVuSans-c9c" d="M 678 2272 
L 4684 2272 
L 4684 1741 
L 678 1741 
L 678 2272 
z
" transform="scale(0.015625)"/>
        <path id="DejaVuSans-13" d="M 2034 4250 
Q 1547 4250 1301 3770 
Q 1056 3291 1056 2328 
Q 1056 1369 1301 889 
Q 1547 409 2034 409 
Q 2525 409 2770 889 
Q 3016 1369 3016 2328 
Q 3016 3291 2770 3770 
Q 2525 4250 2034 4250 
z
M 2034 4750 
Q 2819 4750 3233 4129 
Q 3647 3509 3647 2328 
Q 3647 1150 3233 529 
Q 2819 -91 2034 -91 
Q 1250 -91 836 529 
Q 422 1150 422 2328 
Q 422 3509 836 4129 
Q 1250 4750 2034 4750 
z
" transform="scale(0.015625)"/>
        <path id="DejaVuSans-11" d="M 684 794 
L 1344 794 
L 1344 0 
L 684 0 
L 684 794 
z
" transform="scale(0.015625)"/>
        <path id="DejaVuSans-15" d="M 1228 531 
L 3431 531 
L 3431 0 
L 469 0 
L 469 531 
Q 828 903 1448 1529 
Q 2069 2156 2228 2338 
Q 2531 2678 2651 2914 
Q 2772 3150 2772 3378 
Q 2772 3750 2511 3984 
Q 2250 4219 1831 4219 
Q 1534 4219 1204 4116 
Q 875 4013 500 3803 
L 500 4441 
Q 881 4594 1212 4672 
Q 1544 4750 1819 4750 
Q 2544 4750 2975 4387 
Q 3406 4025 3406 3419 
Q 3406 3131 3298 2873 
Q 3191 2616 2906 2266 
Q 2828 2175 2409 1742 
Q 1991 1309 1228 531 
z
" transform="scale(0.015625)"/>
       </defs>
       <use xlink:href="#DejaVuSans-c9c"/>
       <use xlink:href="#DejaVuSans-13" transform="translate(83.796875 0)"/>
       <use xlink:href="#DejaVuSans-11" transform="translate(147.421875 0)"/>
       <use xlink:href="#DejaVuSans-15" transform="translate(179.203125 0)"/>
      </g>
     </g>
    </g>
    <g id="xtick_2">
     <g id="line2d_3">
      <path d="M 117.175202 128.967435 
L 117.175202 22.318125 
" clip-path="url(#p5a29d24d81)" style="fill: none; stroke: #eeeeee; stroke-width: 0.5; stroke-linecap: square"/>
     </g>
     <g id="line2d_4">
      <g>
       <use xlink:href="#m69ef4bdbd2" x="117.175202" y="128.967435" style="stroke: #000000; stroke-width: 0.8"/>
      </g>
     </g>
     <g id="text_2">
      <!-- −0.1 -->
      <g transform="translate(105.033796 143.565091) scale(0.1 -0.1)">
       <defs>
        <path id="DejaVuSans-14" d="M 794 531 
L 1825 531 
L 1825 4091 
L 703 3866 
L 703 4441 
L 1819 4666 
L 2450 4666 
L 2450 531 
L 3481 531 
L 3481 0 
L 794 0 
L 794 531 
z
" transform="scale(0.015625)"/>
       </defs>
       <use xlink:href="#DejaVuSans-c9c"/>
       <use xlink:href="#DejaVuSans-13" transform="translate(83.796875 0)"/>
       <use xlink:href="#DejaVuSans-11" transform="translate(147.421875 0)"/>
       <use xlink:href="#DejaVuSans-14" transform="translate(179.203125 0)"/>
      </g>
     </g>
    </g>
    <g id="xtick_3">
     <g id="line2d_5">
      <path d="M 154.95211 128.967435 
L 154.95211 22.318125 
" clip-path="url(#p5a29d24d81)" style="fill: none; stroke: #eeeeee; stroke-width: 0.5; stroke-linecap: square"/>
     </g>
     <g id="line2d_6">
      <g>
       <use xlink:href="#m69ef4bdbd2" x="154.95211" y="128.967435" style="stroke: #000000; stroke-width: 0.8"/>
      </g>
     </g>
     <g id="text_3">
      <!-- 0.0 -->
      <g transform="translate(147.000547 143.565091) scale(0.1 -0.1)">
       <use xlink:href="#DejaVuSans-13"/>
       <use xlink:href="#DejaVuSans-11" transform="translate(63.625 0)"/>
       <use xlink:href="#DejaVuSans-13" transform="translate(95.40625 0)"/>
      </g>
     </g>
    </g>
    <g id="xtick_4">
     <g id="line2d_7">
      <path d="M 192.729017 128.967435 
L 192.729017 22.318125 
" clip-path="url(#p5a29d24d81)" style="fill: none; stroke: #eeeeee; stroke-width: 0.5; stroke-linecap: square"/>
     </g>
     <g id="line2d_8">
      <g>
       <use xlink:href="#m69ef4bdbd2" x="192.729017" y="128.967435" style="stroke: #000000; stroke-width: 0.8"/>
      </g>
     </g>
     <g id="text_4">
      <!-- 0.1 -->
      <g transform="translate(184.777455 143.565091) scale(0.1 -0.1)">
       <use xlink:href="#DejaVuSans-13"/>
       <use xlink:href="#DejaVuSans-11" transform="translate(63.625 0)"/>
       <use xlink:href="#DejaVuSans-14" transform="translate(95.40625 0)"/>
      </g>
     </g>
    </g>
    <g id="xtick_5">
     <g id="line2d_9">
      <path d="M 230.505925 128.967435 
L 230.505925 22.318125 
" clip-path="url(#p5a29d24d81)" style="fill: none; stroke: #eeeeee; stroke-width: 0.5; stroke-linecap: square"/>
     </g>
     <g id="line2d_10">
      <g>
       <use xlink:href="#m69ef4bdbd2" x="230.505925" y="128.967435" style="stroke: #000000; stroke-width: 0.8"/>
      </g>
     </g>
     <g id="text_5">
      <!-- 0.2 -->
      <g transform="translate(222.554363 143.565091) scale(0.1 -0.1)">
       <use xlink:href="#DejaVuSans-13"/>
       <use xlink:href="#DejaVuSans-11" transform="translate(63.625 0)"/>
       <use xlink:href="#DejaVuSans-15" transform="translate(95.40625 0)"/>
      </g>
     </g>
    </g>
    <g id="text_6">
     <!-- Acceleration $a$ (m/s$^2$) -->
     <g transform="translate(102.15211 159.367435) scale(0.1 -0.1)">
      <defs>
       <path id="DejaVuSans-24" d="M 2188 4044 
L 1331 1722 
L 3047 1722 
L 2188 4044 
z
M 1831 4666 
L 2547 4666 
L 4325 0 
L 3669 0 
L 3244 1197 
L 1141 1197 
L 716 0 
L 50 0 
L 1831 4666 
z
" transform="scale(0.015625)"/>
       <path id="DejaVuSans-46" d="M 3122 3366 
L 3122 2828 
Q 2878 2963 2633 3030 
Q 2388 3097 2138 3097 
Q 1578 3097 1268 2742 
Q 959 2388 959 1747 
Q 959 1106 1268 751 
Q 1578 397 2138 397 
Q 2388 397 2633 464 
Q 2878 531 3122 666 
L 3122 134 
Q 2881 22 2623 -34 
Q 2366 -91 2075 -91 
Q 1284 -91 818 406 
Q 353 903 353 1747 
Q 353 2603 823 3093 
Q 1294 3584 2113 3584 
Q 2378 3584 2631 3529 
Q 2884 3475 3122 3366 
z
" transform="scale(0.015625)"/>
       <path id="DejaVuSans-48" d="M 3597 1894 
L 3597 1613 
L 953 1613 
Q 991 1019 1311 708 
Q 1631 397 2203 397 
Q 2534 397 2845 478 
Q 3156 559 3463 722 
L 3463 178 
Q 3153 47 2828 -22 
Q 2503 -91 2169 -91 
Q 1331 -91 842 396 
Q 353 884 353 1716 
Q 353 2575 817 3079 
Q 1281 3584 2069 3584 
Q 2775 3584 3186 3129 
Q 3597 2675 3597 1894 
z
M 3022 2063 
Q 3016 2534 2758 2815 
Q 2500 3097 2075 3097 
Q 1594 3097 1305 2825 
Q 1016 2553 972 2059 
L 3022 2063 
z
" transform="scale(0.015625)"/>
       <path id="DejaVuSans-4f" d="M 603 4863 
L 1178 4863 
L 1178 0 
L 603 0 
L 603 4863 
z
" transform="scale(0.015625)"/>
       <path id="DejaVuSans-55" d="M 2631 2963 
Q 2534 3019 2420 3045 
Q 2306 3072 2169 3072 
Q 1681 3072 1420 2755 
Q 1159 2438 1159 1844 
L 1159 0 
L 581 0 
L 581 3500 
L 1159 3500 
L 1159 2956 
Q 1341 3275 1631 3429 
Q 1922 3584 2338 3584 
Q 2397 3584 2469 3576 
Q 2541 3569 2628 3553 
L 2631 2963 
z
" transform="scale(0.015625)"/>
       <path id="DejaVuSans-44" d="M 2194 1759 
Q 1497 1759 1228 1600 
Q 959 1441 959 1056 
Q 959 750 1161 570 
Q 1363 391 1709 391 
Q 2188 391 2477 730 
Q 2766 1069 2766 1631 
L 2766 1759 
L 2194 1759 
z
M 3341 1997 
L 3341 0 
L 2766 0 
L 2766 531 
Q 2569 213 2275 61 
Q 1981 -91 1556 -91 
Q 1019 -91 701 211 
Q 384 513 384 1019 
Q 384 1609 779 1909 
Q 1175 2209 1959 2209 
L 2766 2209 
L 2766 2266 
Q 2766 2663 2505 2880 
Q 2244 3097 1772 3097 
Q 1472 3097 1187 3025 
Q 903 2953 641 2809 
L 641 3341 
Q 956 3463 1253 3523 
Q 1550 3584 1831 3584 
Q 2591 3584 2966 3190 
Q 3341 2797 3341 1997 
z
" transform="scale(0.015625)"/>
       <path id="DejaVuSans-57" d="M 1172 4494 
L 1172 3500 
L 2356 3500 
L 2356 3053 
L 1172 3053 
L 1172 1153 
Q 1172 725 1289 603 
Q 1406 481 1766 481 
L 2356 481 
L 2356 0 
L 1766 0 
Q 1100 0 847 248 
Q 594 497 594 1153 
L 594 3053 
L 172 3053 
L 172 3500 
L 594 3500 
L 594 4494 
L 1172 4494 
z
" transform="scale(0.015625)"/>
       <path id="DejaVuSans-4c" d="M 603 3500 
L 1178 3500 
L 1178 0 
L 603 0 
L 603 3500 
z
M 603 4863 
L 1178 4863 
L 1178 4134 
L 603 4134 
L 603 4863 
z
" transform="scale(0.015625)"/>
       <path id="DejaVuSans-52" d="M 1959 3097 
Q 1497 3097 1228 2736 
Q 959 2375 959 1747 
Q 959 1119 1226 758 
Q 1494 397 1959 397 
Q 2419 397 2687 759 
Q 2956 1122 2956 1747 
Q 2956 2369 2687 2733 
Q 2419 3097 1959 3097 
z
M 1959 3584 
Q 2709 3584 3137 3096 
Q 3566 2609 3566 1747 
Q 3566 888 3137 398 
Q 2709 -91 1959 -91 
Q 1206 -91 779 398 
Q 353 888 353 1747 
Q 353 2609 779 3096 
Q 1206 3584 1959 3584 
z
" transform="scale(0.015625)"/>
       <path id="DejaVuSans-51" d="M 3513 2113 
L 3513 0 
L 2938 0 
L 2938 2094 
Q 2938 2591 2744 2837 
Q 2550 3084 2163 3084 
Q 1697 3084 1428 2787 
Q 1159 2491 1159 1978 
L 1159 0 
L 581 0 
L 581 3500 
L 1159 3500 
L 1159 2956 
Q 1366 3272 1645 3428 
Q 1925 3584 2291 3584 
Q 2894 3584 3203 3211 
Q 3513 2838 3513 2113 
z
" transform="scale(0.015625)"/>
       <path id="DejaVuSans-3" transform="scale(0.015625)"/>
       <path id="DejaVuSans-Oblique-44" d="M 3438 1997 
L 3047 0 
L 2472 0 
L 2578 531 
Q 2325 219 2001 64 
Q 1678 -91 1281 -91 
Q 834 -91 548 182 
Q 263 456 263 884 
Q 263 1497 752 1853 
Q 1241 2209 2100 2209 
L 2900 2209 
L 2931 2363 
Q 2938 2388 2941 2417 
Q 2944 2447 2944 2509 
Q 2944 2788 2717 2942 
Q 2491 3097 2081 3097 
Q 1800 3097 1504 3025 
Q 1209 2953 897 2809 
L 997 3341 
Q 1322 3463 1633 3523 
Q 1944 3584 2234 3584 
Q 2853 3584 3176 3315 
Q 3500 3047 3500 2534 
Q 3500 2431 3484 2292 
Q 3469 2153 3438 1997 
z
M 2816 1759 
L 2241 1759 
Q 1534 1759 1195 1570 
Q 856 1381 856 984 
Q 856 709 1029 553 
Q 1203 397 1509 397 
Q 1978 397 2328 733 
Q 2678 1069 2791 1631 
L 2816 1759 
z
" transform="scale(0.015625)"/>
       <path id="DejaVuSans-b" d="M 1984 4856 
Q 1566 4138 1362 3434 
Q 1159 2731 1159 2009 
Q 1159 1288 1364 580 
Q 1569 -128 1984 -844 
L 1484 -844 
Q 1016 -109 783 600 
Q 550 1309 550 2009 
Q 550 2706 781 3412 
Q 1013 4119 1484 4856 
L 1984 4856 
z
" transform="scale(0.015625)"/>
       <path id="DejaVuSans-50" d="M 3328 2828 
Q 3544 3216 3844 3400 
Q 4144 3584 4550 3584 
Q 5097 3584 5394 3201 
Q 5691 2819 5691 2113 
L 5691 0 
L 5113 0 
L 5113 2094 
Q 5113 2597 4934 2840 
Q 4756 3084 4391 3084 
Q 3944 3084 3684 2787 
Q 3425 2491 3425 1978 
L 3425 0 
L 2847 0 
L 2847 2094 
Q 2847 2600 2669 2842 
Q 2491 3084 2119 3084 
Q 1678 3084 1418 2786 
Q 1159 2488 1159 1978 
L 1159 0 
L 581 0 
L 581 3500 
L 1159 3500 
L 1159 2956 
Q 1356 3278 1631 3431 
Q 1906 3584 2284 3584 
Q 2666 3584 2933 3390 
Q 3200 3197 3328 2828 
z
" transform="scale(0.015625)"/>
       <path id="DejaVuSans-12" d="M 1625 4666 
L 2156 4666 
L 531 -594 
L 0 -594 
L 1625 4666 
z
" transform="scale(0.015625)"/>
       <path id="DejaVuSans-56" d="M 2834 3397 
L 2834 2853 
Q 2591 2978 2328 3040 
Q 2066 3103 1784 3103 
Q 1356 3103 1142 2972 
Q 928 2841 928 2578 
Q 928 2378 1081 2264 
Q 1234 2150 1697 2047 
L 1894 2003 
Q 2506 1872 2764 1633 
Q 3022 1394 3022 966 
Q 3022 478 2636 193 
Q 2250 -91 1575 -91 
Q 1294 -91 989 -36 
Q 684 19 347 128 
L 347 722 
Q 666 556 975 473 
Q 1284 391 1588 391 
Q 1994 391 2212 530 
Q 2431 669 2431 922 
Q 2431 1156 2273 1281 
Q 2116 1406 1581 1522 
L 1381 1569 
Q 847 1681 609 1914 
Q 372 2147 372 2553 
Q 372 3047 722 3315 
Q 1072 3584 1716 3584 
Q 2034 3584 2315 3537 
Q 2597 3491 2834 3397 
z
" transform="scale(0.015625)"/>
       <path id="DejaVuSans-c" d="M 513 4856 
L 1013 4856 
Q 1481 4119 1714 3412 
Q 1947 2706 1947 2009 
Q 1947 1309 1714 600 
Q 1481 -109 1013 -844 
L 513 -844 
Q 928 -128 1133 580 
Q 1338 1288 1338 2009 
Q 1338 2731 1133 3434 
Q 928 4138 513 4856 
z
" transform="scale(0.015625)"/>
      </defs>
      <use xlink:href="#DejaVuSans-24" transform="translate(0 0.746875)"/>
      <use xlink:href="#DejaVuSans-46" transform="translate(66.408203 0.746875)"/>
      <use xlink:href="#DejaVuSans-46" transform="translate(121.388672 0.746875)"/>
      <use xlink:href="#DejaVuSans-48" transform="translate(176.369141 0.746875)"/>
      <use xlink:href="#DejaVuSans-4f" transform="translate(237.892578 0.746875)"/>
      <use xlink:href="#DejaVuSans-48" transform="translate(265.675781 0.746875)"/>
      <use xlink:href="#DejaVuSans-55" transform="translate(327.199219 0.746875)"/>
      <use xlink:href="#DejaVuSans-44" transform="translate(368.3125 0.746875)"/>
      <use xlink:href="#DejaVuSans-57" transform="translate(429.591797 0.746875)"/>
      <use xlink:href="#DejaVuSans-4c" transform="translate(468.800781 0.746875)"/>
      <use xlink:href="#DejaVuSans-52" transform="translate(496.583984 0.746875)"/>
      <use xlink:href="#DejaVuSans-51" transform="translate(557.765625 0.746875)"/>
      <use xlink:href="#DejaVuSans-3" transform="translate(621.144531 0.746875)"/>
      <use xlink:href="#DejaVuSans-Oblique-44" transform="translate(652.931641 0.746875)"/>
      <use xlink:href="#DejaVuSans-3" transform="translate(714.210938 0.746875)"/>
      <use xlink:href="#DejaVuSans-b" transform="translate(745.998047 0.746875)"/>
      <use xlink:href="#DejaVuSans-50" transform="translate(785.011719 0.746875)"/>
      <use xlink:href="#DejaVuSans-12" transform="translate(882.423828 0.746875)"/>
      <use xlink:href="#DejaVuSans-56" transform="translate(916.115234 0.746875)"/>
      <use xlink:href="#DejaVuSans-15" transform="translate(969.171875 42.046875) scale(0.7)"/>
      <use xlink:href="#DejaVuSans-c" transform="translate(1016.442383 0.746875)"/>
     </g>
    </g>
   </g>
   <g id="matplotlib.axis_2">
    <g id="ytick_1">
     <g id="line2d_11">
      <path d="M 58.847656 107.960753 
L 251.056563 107.960753 
" clip-path="url(#p5a29d24d81)" style="fill: none; stroke: #eeeeee; stroke-width: 0.5; stroke-linecap: square"/>
     </g>
     <g id="line2d_12">
      <defs>
       <path id="me9027f14f7" d="M 0 0 
L -3.5 0 
" style="stroke: #000000; stroke-width: 0.8"/>
      </defs>
      <g>
       <use xlink:href="#me9027f14f7" x="58.847656" y="107.960753" style="stroke: #000000; stroke-width: 0.8"/>
      </g>
     </g>
     <g id="text_7">
      <!-- −0.02 -->
      <g transform="translate(21.202344 111.759581) scale(0.1 -0.1)">
       <use xlink:href="#DejaVuSans-c9c"/>
       <use xlink:href="#DejaVuSans-13" transform="translate(83.796875 0)"/>
       <use xlink:href="#DejaVuSans-11" transform="translate(147.421875 0)"/>
       <use xlink:href="#DejaVuSans-13" transform="translate(179.203125 0)"/>
       <use xlink:href="#DejaVuSans-15" transform="translate(242.828125 0)"/>
      </g>
     </g>
    </g>
    <g id="ytick_2">
     <g id="line2d_13">
      <path d="M 58.847656 75.64278 
L 251.056563 75.64278 
" clip-path="url(#p5a29d24d81)" style="fill: none; stroke: #eeeeee; stroke-width: 0.5; stroke-linecap: square"/>
     </g>
     <g id="line2d_14">
      <g>
       <use xlink:href="#me9027f14f7" x="58.847656" y="75.64278" style="stroke: #000000; stroke-width: 0.8"/>
      </g>
     </g>
     <g id="text_8">
      <!-- 0.00 -->
      <g transform="translate(29.582031 79.441608) scale(0.1 -0.1)">
       <use xlink:href="#DejaVuSans-13"/>
       <use xlink:href="#DejaVuSans-11" transform="translate(63.625 0)"/>
       <use xlink:href="#DejaVuSans-13" transform="translate(95.40625 0)"/>
       <use xlink:href="#DejaVuSans-13" transform="translate(159.03125 0)"/>
      </g>
     </g>
    </g>
    <g id="ytick_3">
     <g id="line2d_15">
      <path d="M 58.847656 43.324807 
L 251.056563 43.324807 
" clip-path="url(#p5a29d24d81)" style="fill: none; stroke: #eeeeee; stroke-width: 0.5; stroke-linecap: square"/>
     </g>
     <g id="line2d_16">
      <g>
       <use xlink:href="#me9027f14f7" x="58.847656" y="43.324807" style="stroke: #000000; stroke-width: 0.8"/>
      </g>
     </g>
     <g id="text_9">
      <!-- 0.02 -->
      <g transform="translate(29.582031 47.123635) scale(0.1 -0.1)">
       <use xlink:href="#DejaVuSans-13"/>
       <use xlink:href="#DejaVuSans-11" transform="translate(63.625 0)"/>
       <use xlink:href="#DejaVuSans-13" transform="translate(95.40625 0)"/>
       <use xlink:href="#DejaVuSans-15" transform="translate(159.03125 0)"/>
      </g>
     </g>
    </g>
    <g id="text_10">
     <!-- Turn rate $\omega$ (rad/s) -->
     <g transform="translate(14.8 121.84278) rotate(-90) scale(0.1 -0.1)">
      <defs>
       <path id="DejaVuSans-37" d="M -19 4666 
L 3928 4666 
L 3928 4134 
L 2272 4134 
L 2272 0 
L 1638 0 
L 1638 4134 
L -19 4134 
L -19 4666 
z
" transform="scale(0.015625)"/>
       <path id="DejaVuSans-58" d="M 544 1381 
L 544 3500 
L 1119 3500 
L 1119 1403 
Q 1119 906 1312 657 
Q 1506 409 1894 409 
Q 2359 409 2629 706 
Q 2900 1003 2900 1516 
L 2900 3500 
L 3475 3500 
L 3475 0 
L 2900 0 
L 2900 538 
Q 2691 219 2414 64 
Q 2138 -91 1772 -91 
Q 1169 -91 856 284 
Q 544 659 544 1381 
z
M 1991 3584 
L 1991 3584 
z
" transform="scale(0.015625)"/>
       <path id="DejaVuSans-Oblique-35d" d="M 1369 -91 
Q 72 -91 434 1766 
Q 575 2500 1256 3500 
L 1875 3500 
Q 1231 2500 1088 1750 
Q 819 397 1519 397 
Q 2166 397 2478 2078 
L 3009 2078 
Q 2669 388 3316 397 
Q 4013 403 4275 1750 
Q 4419 2500 4169 3500 
L 4788 3500 
Q 5075 2500 4934 1766 
Q 4578 -94 3278 -91 
Q 2428 -88 2503 844 
Q 2194 -91 1369 -91 
z
" transform="scale(0.015625)"/>
       <path id="DejaVuSans-47" d="M 2906 2969 
L 2906 4863 
L 3481 4863 
L 3481 0 
L 2906 0 
L 2906 525 
Q 2725 213 2448 61 
Q 2172 -91 1784 -91 
Q 1150 -91 751 415 
Q 353 922 353 1747 
Q 353 2572 751 3078 
Q 1150 3584 1784 3584 
Q 2172 3584 2448 3432 
Q 2725 3281 2906 2969 
z
M 947 1747 
Q 947 1113 1208 752 
Q 1469 391 1925 391 
Q 2381 391 2643 752 
Q 2906 1113 2906 1747 
Q 2906 2381 2643 2742 
Q 2381 3103 1925 3103 
Q 1469 3103 1208 2742 
Q 947 2381 947 1747 
z
" transform="scale(0.015625)"/>
      </defs>
      <use xlink:href="#DejaVuSans-37" transform="translate(0 0.015625)"/>
      <use xlink:href="#DejaVuSans-58" transform="translate(46.083984 0.015625)"/>
      <use xlink:href="#DejaVuSans-55" transform="translate(109.462891 0.015625)"/>
      <use xlink:href="#DejaVuSans-51" transform="translate(148.576172 0.015625)"/>
      <use xlink:href="#DejaVuSans-3" transform="translate(211.955078 0.015625)"/>
      <use xlink:href="#DejaVuSans-55" transform="translate(243.742188 0.015625)"/>
      <use xlink:href="#DejaVuSans-44" transform="translate(284.855469 0.015625)"/>
      <use xlink:href="#DejaVuSans-57" transform="translate(346.134766 0.015625)"/>
      <use xlink:href="#DejaVuSans-48" transform="translate(385.34375 0.015625)"/>
      <use xlink:href="#DejaVuSans-3" transform="translate(446.867188 0.015625)"/>
      <use xlink:href="#DejaVuSans-Oblique-35d" transform="translate(478.654297 0.015625)"/>
      <use xlink:href="#DejaVuSans-3" transform="translate(562.394531 0.015625)"/>
      <use xlink:href="#DejaVuSans-b" transform="translate(594.181641 0.015625)"/>
      <use xlink:href="#DejaVuSans-55" transform="translate(633.195312 0.015625)"/>
      <use xlink:href="#DejaVuSans-44" transform="translate(674.308594 0.015625)"/>
      <use xlink:href="#DejaVuSans-47" transform="translate(735.587891 0.015625)"/>
      <use xlink:href="#DejaVuSans-12" transform="translate(799.064453 0.015625)"/>
      <use xlink:href="#DejaVuSans-56" transform="translate(832.755859 0.015625)"/>
      <use xlink:href="#DejaVuSans-c" transform="translate(884.855469 0.015625)"/>
     </g>
    </g>
   </g>
   <g id="patch_3">
    <path d="M 64.287531 124.119739 
L 245.616688 124.119739 
L 245.616688 27.165821 
L 64.287531 27.165821 
L 64.287531 124.119739 
z
" clip-path="url(#p5a29d24d81)" style="fill: none; stroke-dasharray: 3.6,1.8; stroke-dashoffset: 0; stroke: #272727; stroke-width: 0.9; stroke-linejoin: miter"/>
   </g>
   <g id="patch_4">
    <path d="M 136.819194 104.728955 
L 173.085025 104.728955 
L 173.085025 46.556604 
L 136.819194 46.556604 
L 136.819194 104.728955 
z
" clip-path="url(#p5a29d24d81)" style="fill: none; opacity: 0.75; stroke-dasharray: 1.05,1.05; stroke-dashoffset: 0; stroke: #272727; stroke-width: 0.7; stroke-linejoin: miter"/>
   </g>
   <g id="patch_5">
    <path d="M 58.847656 128.967435 
L 58.847656 22.318125 
" style="fill: none; stroke: #000000; stroke-width: 0.8; stroke-linejoin: miter; stroke-linecap: square"/>
   </g>
   <g id="patch_6">
    <path d="M 251.056563 128.967435 
L 251.056563 22.318125 
" style="fill: none; stroke: #000000; stroke-width: 0.8; stroke-linejoin: miter; stroke-linecap: square"/>
   </g>
   <g id="patch_7">
    <path d="M 58.847656 128.967435 
L 251.056563 128.967435 
" style="fill: none; stroke: #000000; stroke-width: 0.8; stroke-linejoin: miter; stroke-linecap: square"/>
   </g>
   <g id="patch_8">
    <path d="M 58.847656 22.318125 
L 251.056563 22.318125 
" style="fill: none; stroke: #000000; stroke-width: 0.8; stroke-linejoin: miter; stroke-linecap: square"/>
   </g>
   <g id="line2d_17">
    <path d="M 58.847656 89.744156 
L 251.056563 89.744156 
" clip-path="url(#p5a29d24d81)" style="fill: none; stroke: #0f4d92; stroke-width: 1.1; stroke-linecap: square"/>
   </g>
   <g id="line2d_18">
    <path d="M 64.287531 115.559636 
L 245.616688 90.381254 
" clip-path="url(#p5a29d24d81)" style="fill: none; stroke: #b64342; stroke-width: 1.1; stroke-linecap: square"/>
   </g>
   <g id="text_11">
    <!-- (a) Give-way step (crossing) -->
    <g transform="translate(70.518985 16.318125) scale(0.12 -0.12)">
     <defs>
      <path id="DejaVuSans-2a" d="M 3809 666 
L 3809 1919 
L 2778 1919 
L 2778 2438 
L 4434 2438 
L 4434 434 
Q 4069 175 3628 42 
Q 3188 -91 2688 -91 
Q 1594 -91 976 548 
Q 359 1188 359 2328 
Q 359 3472 976 4111 
Q 1594 4750 2688 4750 
Q 3144 4750 3555 4637 
Q 3966 4525 4313 4306 
L 4313 3634 
Q 3963 3931 3569 4081 
Q 3175 4231 2741 4231 
Q 1884 4231 1454 3753 
Q 1025 3275 1025 2328 
Q 1025 1384 1454 906 
Q 1884 428 2741 428 
Q 3075 428 3337 486 
Q 3600 544 3809 666 
z
" transform="scale(0.015625)"/>
      <path id="DejaVuSans-59" d="M 191 3500 
L 800 3500 
L 1894 563 
L 2988 3500 
L 3597 3500 
L 2284 0 
L 1503 0 
L 191 3500 
z
" transform="scale(0.015625)"/>
      <path id="DejaVuSans-10" d="M 313 2009 
L 1997 2009 
L 1997 1497 
L 313 1497 
L 313 2009 
z
" transform="scale(0.015625)"/>
      <path id="DejaVuSans-5a" d="M 269 3500 
L 844 3500 
L 1563 769 
L 2278 3500 
L 2956 3500 
L 3675 769 
L 4391 3500 
L 4966 3500 
L 4050 0 
L 3372 0 
L 2619 2869 
L 1863 0 
L 1184 0 
L 269 3500 
z
" transform="scale(0.015625)"/>
      <path id="DejaVuSans-5c" d="M 2059 -325 
Q 1816 -950 1584 -1140 
Q 1353 -1331 966 -1331 
L 506 -1331 
L 506 -850 
L 844 -850 
Q 1081 -850 1212 -737 
Q 1344 -625 1503 -206 
L 1606 56 
L 191 3500 
L 800 3500 
L 1894 763 
L 2988 3500 
L 3597 3500 
L 2059 -325 
z
" transform="scale(0.015625)"/>
      <path id="DejaVuSans-53" d="M 1159 525 
L 1159 -1331 
L 581 -1331 
L 581 3500 
L 1159 3500 
L 1159 2969 
Q 1341 3281 1617 3432 
Q 1894 3584 2278 3584 
Q 2916 3584 3314 3078 
Q 3713 2572 3713 1747 
Q 3713 922 3314 415 
Q 2916 -91 2278 -91 
Q 1894 -91 1617 61 
Q 1341 213 1159 525 
z
M 3116 1747 
Q 3116 2381 2855 2742 
Q 2594 3103 2138 3103 
Q 1681 3103 1420 2742 
Q 1159 2381 1159 1747 
Q 1159 1113 1420 752 
Q 1681 391 2138 391 
Q 2594 391 2855 752 
Q 3116 1113 3116 1747 
z
" transform="scale(0.015625)"/>
      <path id="DejaVuSans-4a" d="M 2906 1791 
Q 2906 2416 2648 2759 
Q 2391 3103 1925 3103 
Q 1463 3103 1205 2759 
Q 947 2416 947 1791 
Q 947 1169 1205 825 
Q 1463 481 1925 481 
Q 2391 481 2648 825 
Q 2906 1169 2906 1791 
z
M 3481 434 
Q 3481 -459 3084 -895 
Q 2688 -1331 1869 -1331 
Q 1566 -1331 1297 -1286 
Q 1028 -1241 775 -1147 
L 775 -588 
Q 1028 -725 1275 -790 
Q 1522 -856 1778 -856 
Q 2344 -856 2625 -561 
Q 2906 -266 2906 331 
L 2906 616 
Q 2728 306 2450 153 
Q 2172 0 1784 0 
Q 1141 0 747 490 
Q 353 981 353 1791 
Q 353 2603 747 3093 
Q 1141 3584 1784 3584 
Q 2172 3584 2450 3431 
Q 2728 3278 2906 2969 
L 2906 3500 
L 3481 3500 
L 3481 434 
z
" transform="scale(0.015625)"/>
     </defs>
     <use xlink:href="#DejaVuSans-b"/>
     <use xlink:href="#DejaVuSans-44" transform="translate(39.015625 0)"/>
     <use xlink:href="#DejaVuSans-c" transform="translate(100.296875 0)"/>
     <use xlink:href="#DejaVuSans-3" transform="translate(139.3125 0)"/>
     <use xlink:href="#DejaVuSans-2a" transform="translate(171.09375 0)"/>
     <use xlink:href="#DejaVuSans-4c" transform="translate(248.578125 0)"/>
     <use xlink:href="#DejaVuSans-59" transform="translate(276.359375 0)"/>
     <use xlink:href="#DejaVuSans-48" transform="translate(335.546875 0)"/>
     <use xlink:href="#DejaVuSans-10" transform="translate(397.078125 0)"/>
     <use xlink:href="#DejaVuSans-5a" transform="translate(433.15625 0)"/>
     <use xlink:href="#DejaVuSans-44" transform="translate(514.9375 0)"/>
     <use xlink:href="#DejaVuSans-5c" transform="translate(576.21875 0)"/>
     <use xlink:href="#DejaVuSans-3" transform="translate(635.40625 0)"/>
     <use xlink:href="#DejaVuSans-56" transform="translate(667.1875 0)"/>
     <use xlink:href="#DejaVuSans-57" transform="translate(719.28125 0)"/>
     <use xlink:href="#DejaVuSans-48" transform="translate(758.484375 0)"/>
     <use xlink:href="#DejaVuSans-53" transform="translate(820.015625 0)"/>
     <use xlink:href="#DejaVuSans-3" transform="translate(883.5 0)"/>
     <use xlink:href="#DejaVuSans-b" transform="translate(915.28125 0)"/>
     <use xlink:href="#DejaVuSans-46" transform="translate(954.296875 0)"/>
     <use xlink:href="#DejaVuSans-55" transform="translate(1009.28125 0)"/>
     <use xlink:href="#DejaVuSans-52" transform="translate(1048.1875 0)"/>
     <use xlink:href="#DejaVuSans-56" transform="translate(1109.375 0)"/>
     <use xlink:href="#DejaVuSans-56" transform="translate(1161.46875 0)"/>
     <use xlink:href="#DejaVuSans-4c" transform="translate(1213.5625 0)"/>
     <use xlink:href="#DejaVuSans-51" transform="translate(1241.34375 0)"/>
     <use xlink:href="#DejaVuSans-4a" transform="translate(1304.71875 0)"/>
     <use xlink:href="#DejaVuSans-c" transform="translate(1368.203125 0)"/>
    </g>
   </g>
   <g id="patch_9">
    <path d="M 64.287531 89.744156 
L 64.287531 115.504304 
L 65.196449 115.41815 
L 68.377662 114.987378 
L 80.193597 113.350446 
L 112.460189 108.87042 
L 216.076851 94.482645 
L 243.344393 90.691853 
L 245.162229 90.43339 
L 245.616688 90.347236 
L 245.616688 89.744156 
z
" clip-path="url(#p5a29d24d81)" style="fill: #5fa85f; opacity: 0.38; stroke: #5fa85f; stroke-linejoin: miter"/>
   </g>
   <g id="PathCollection_1">
    <defs>
     <path id="m97e7f6c687" d="M 0 2.54951 
C 0.676138 2.54951 1.324674 2.280877 1.802776 1.802776 
C 2.280877 1.324674 2.54951 0.676138 2.54951 0 
C 2.54951 -0.676138 2.280877 -1.324674 1.802776 -1.802776 
C 1.324674 -2.280877 0.676138 -2.54951 0 -2.54951 
C -0.676138 -2.54951 -1.324674 -2.280877 -1.802776 -1.802776 
C -2.280877 -1.324674 -2.54951 -0.676138 -2.54951 0 
C -2.54951 0.676138 -2.280877 1.324674 -1.802776 1.802776 
C -1.324674 2.280877 -0.676138 2.54951 0 2.54951 
z
" style="stroke: #272727; stroke-width: 1.1"/>
    </defs>
    <g clip-path="url(#p5a29d24d81)">
     <use xlink:href="#m97e7f6c687" x="137.206951" y="89.744156" style="fill: #ffffff; stroke: #272727; stroke-width: 1.1"/>
    </g>
   </g>
   <g id="text_12">
    <!-- $u_{\mathrm{safe}}$ -->
    <g transform="translate(143.206951 96.744156) scale(0.06 -0.06)">
     <defs>
      <path id="DejaVuSans-Oblique-58" d="M 428 1388 
L 838 3500 
L 1416 3500 
L 1006 1409 
Q 975 1256 961 1147 
Q 947 1038 947 966 
Q 947 700 1109 554 
Q 1272 409 1569 409 
Q 2031 409 2368 721 
Q 2706 1034 2809 1563 
L 3194 3500 
L 3769 3500 
L 3091 0 
L 2516 0 
L 2631 550 
Q 2388 244 2052 76 
Q 1716 -91 1338 -91 
Q 878 -91 622 161 
Q 366 413 366 863 
Q 366 956 381 1097 
Q 397 1238 428 1388 
z
" transform="scale(0.015625)"/>
      <path id="DejaVuSans-49" d="M 2375 4863 
L 2375 4384 
L 1825 4384 
Q 1516 4384 1395 4259 
Q 1275 4134 1275 3809 
L 1275 3500 
L 2222 3500 
L 2222 3053 
L 1275 3053 
L 1275 0 
L 697 0 
L 697 3053 
L 147 3053 
L 147 3500 
L 697 3500 
L 697 3744 
Q 697 4328 969 4595 
Q 1241 4863 1831 4863 
L 2375 4863 
z
" transform="scale(0.015625)"/>
     </defs>
     <use xlink:href="#DejaVuSans-Oblique-58" transform="translate(0 0.3125)"/>
     <use xlink:href="#DejaVuSans-56" transform="translate(63.378906 -14.687451) scale(0.7)"/>
     <use xlink:href="#DejaVuSans-44" transform="translate(99.848633 -14.687451) scale(0.7)"/>
     <use xlink:href="#DejaVuSans-49" transform="translate(142.744141 -14.687451) scale(0.7)"/>
     <use xlink:href="#DejaVuSans-48" transform="translate(167.387695 -14.687451) scale(0.7)"/>
    </g>
   </g>
   <g id="text_13">
    <!-- actuator limits -->
    <g style="fill: #272727" transform="translate(205.893126 119.87052) scale(0.052 -0.052)">
     <use xlink:href="#DejaVuSans-44"/>
     <use xlink:href="#DejaVuSans-46" transform="translate(61.28125 0)"/>
     <use xlink:href="#DejaVuSans-57" transform="translate(116.265625 0)"/>
     <use xlink:href="#DejaVuSans-58" transform="translate(155.46875 0)"/>
     <use xlink:href="#DejaVuSans-44" transform="translate(218.84375 0)"/>
     <use xlink:href="#DejaVuSans-57" transform="translate(280.125 0)"/>
     <use xlink:href="#DejaVuSans-52" transform="translate(319.328125 0)"/>
     <use xlink:href="#DejaVuSans-55" transform="translate(380.515625 0)"/>
     <use xlink:href="#DejaVuSans-3" transform="translate(421.625 0)"/>
     <use xlink:href="#DejaVuSans-4f" transform="translate(453.40625 0)"/>
     <use xlink:href="#DejaVuSans-4c" transform="translate(481.1875 0)"/>
     <use xlink:href="#DejaVuSans-50" transform="translate(508.96875 0)"/>
     <use xlink:href="#DejaVuSans-4c" transform="translate(606.375 0)"/>
     <use xlink:href="#DejaVuSans-57" transform="translate(634.15625 0)"/>
     <use xlink:href="#DejaVuSans-56" transform="translate(673.359375 0)"/>
    </g>
   </g>
   <g id="text_14">
    <!-- policy box -->
    <g style="fill: #272727; opacity: 0.85" transform="translate(175.085025 44.307386) scale(0.052 -0.052)">
     <defs>
      <path id="DejaVuSans-45" d="M 3116 1747 
Q 3116 2381 2855 2742 
Q 2594 3103 2138 3103 
Q 1681 3103 1420 2742 
Q 1159 2381 1159 1747 
Q 1159 1113 1420 752 
Q 1681 391 2138 391 
Q 2594 391 2855 752 
Q 3116 1113 3116 1747 
z
M 1159 2969 
Q 1341 3281 1617 3432 
Q 1894 3584 2278 3584 
Q 2916 3584 3314 3078 
Q 3713 2572 3713 1747 
Q 3713 922 3314 415 
Q 2916 -91 2278 -91 
Q 1894 -91 1617 61 
Q 1341 213 1159 525 
L 1159 0 
L 581 0 
L 581 4863 
L 1159 4863 
L 1159 2969 
z
" transform="scale(0.015625)"/>
      <path id="DejaVuSans-5b" d="M 3513 3500 
L 2247 1797 
L 3578 0 
L 2900 0 
L 1881 1375 
L 863 0 
L 184 0 
L 1544 1831 
L 300 3500 
L 978 3500 
L 1906 2253 
L 2834 3500 
L 3513 3500 
z
" transform="scale(0.015625)"/>
     </defs>
     <use xlink:href="#DejaVuSans-53"/>
     <use xlink:href="#DejaVuSans-52" transform="translate(63.484375 0)"/>
     <use xlink:href="#DejaVuSans-4f" transform="translate(124.671875 0)"/>
     <use xlink:href="#DejaVuSans-4c" transform="translate(152.453125 0)"/>
     <use xlink:href="#DejaVuSans-46" transform="translate(180.234375 0)"/>
     <use xlink:href="#DejaVuSans-5c" transform="translate(235.21875 0)"/>
     <use xlink:href="#DejaVuSans-3" transform="translate(294.40625 0)"/>
     <use xlink:href="#DejaVuSans-45" transform="translate(326.1875 0)"/>
     <use xlink:href="#DejaVuSans-52" transform="translate(389.671875 0)"/>
     <use xlink:href="#DejaVuSans-5b" transform="translate(447.78125 0)"/>
    </g>
   </g>
   <g id="text_15">
    <!-- $\omega \leq -\omega_{\mathrm{turn}}$  (compliant) -->
    <g style="fill: #0f4d92" transform="translate(67.287531 101.696156) scale(0.052 -0.052)">
     <defs>
      <path id="DejaVuSans-cee" d="M 4684 3175 
L 1684 2309 
L 4684 1453 
L 4684 897 
L 678 2047 
L 678 2578 
L 4684 3725 
L 4684 3175 
z
M 678 531 
L 4684 531 
L 4684 0 
L 678 0 
L 678 531 
z
" transform="scale(0.015625)"/>
     </defs>
     <use xlink:href="#DejaVuSans-Oblique-35d" transform="translate(0 0.015625)"/>
     <use xlink:href="#DejaVuSans-cee" transform="translate(103.222656 0.015625)"/>
     <use xlink:href="#DejaVuSans-c9c" transform="translate(225.976562 0.015625)"/>
     <use xlink:href="#DejaVuSans-Oblique-35d" transform="translate(329.248047 0.015625)"/>
     <use xlink:href="#DejaVuSans-57" transform="translate(412.988281 -14.984326) scale(0.7)"/>
     <use xlink:href="#DejaVuSans-58" transform="translate(440.43457 -14.984326) scale(0.7)"/>
     <use xlink:href="#DejaVuSans-55" transform="translate(484.799805 -14.984326) scale(0.7)"/>
     <use xlink:href="#DejaVuSans-51" transform="translate(512.179102 -14.984326) scale(0.7)"/>
     <use xlink:href="#DejaVuSans-3" transform="translate(559.278711 0.015625)"/>
     <use xlink:href="#DejaVuSans-3" transform="translate(591.06582 0.015625)"/>
     <use xlink:href="#DejaVuSans-b" transform="translate(622.85293 0.015625)"/>
     <use xlink:href="#DejaVuSans-46" transform="translate(661.866602 0.015625)"/>
     <use xlink:href="#DejaVuSans-52" transform="translate(716.84707 0.015625)"/>
     <use xlink:href="#DejaVuSans-50" transform="translate(778.028711 0.015625)"/>
     <use xlink:href="#DejaVuSans-53" transform="translate(875.44082 0.015625)"/>
     <use xlink:href="#DejaVuSans-4f" transform="translate(938.917383 0.015625)"/>
     <use xlink:href="#DejaVuSans-4c" transform="translate(966.700586 0.015625)"/>
     <use xlink:href="#DejaVuSans-44" transform="translate(994.483789 0.015625)"/>
     <use xlink:href="#DejaVuSans-51" transform="translate(1055.763086 0.015625)"/>
     <use xlink:href="#DejaVuSans-57" transform="translate(1119.141992 0.015625)"/>
     <use xlink:href="#DejaVuSans-c" transform="translate(1158.350977 0.015625)"/>
    </g>
   </g>
   <g id="text_16">
    <!-- one-step collision-free -->
    <g style="fill: #b64342" transform="translate(176.02344 90.797171) scale(0.052 -0.052)">
     <use xlink:href="#DejaVuSans-52"/>
     <use xlink:href="#DejaVuSans-51" transform="translate(61.1875 0)"/>
     <use xlink:href="#DejaVuSans-48" transform="translate(124.5625 0)"/>
     <use xlink:href="#DejaVuSans-10" transform="translate(186.09375 0)"/>
     <use xlink:href="#DejaVuSans-56" transform="translate(222.171875 0)"/>
     <use xlink:href="#DejaVuSans-57" transform="translate(274.265625 0)"/>
     <use xlink:href="#DejaVuSans-48" transform="translate(313.46875 0)"/>
     <use xlink:href="#DejaVuSans-53" transform="translate(375 0)"/>
     <use xlink:href="#DejaVuSans-3" transform="translate(438.484375 0)"/>
     <use xlink:href="#DejaVuSans-46" transform="translate(470.265625 0)"/>
     <use xlink:href="#DejaVuSans-52" transform="translate(525.25 0)"/>
     <use xlink:href="#DejaVuSans-4f" transform="translate(586.4375 0)"/>
     <use xlink:href="#DejaVuSans-4f" transform="translate(614.21875 0)"/>
     <use xlink:href="#DejaVuSans-4c" transform="translate(642 0)"/>
     <use xlink:href="#DejaVuSans-56" transform="translate(669.78125 0)"/>
     <use xlink:href="#DejaVuSans-4c" transform="translate(721.875 0)"/>
     <use xlink:href="#DejaVuSans-52" transform="translate(749.65625 0)"/>
     <use xlink:href="#DejaVuSans-51" transform="translate(810.84375 0)"/>
     <use xlink:href="#DejaVuSans-10" transform="translate(874.21875 0)"/>
     <use xlink:href="#DejaVuSans-49" transform="translate(910.296875 0)"/>
     <use xlink:href="#DejaVuSans-55" transform="translate(945.5 0)"/>
     <use xlink:href="#DejaVuSans-48" transform="translate(984.40625 0)"/>
     <use xlink:href="#DejaVuSans-48" transform="translate(1045.9375 0)"/>
    </g>
   </g>
   <g id="text_17">
    <!-- $U_{\mathrm{safe}}$ -->
    <g style="fill: #272727" transform="translate(142.888346 109.896512) scale(0.064 -0.064)">
     <defs>
      <path id="DejaVuSans-Oblique-38" d="M 991 4666 
L 1625 4666 
L 1075 1831 
Q 1041 1641 1027 1517 
Q 1013 1394 1013 1300 
Q 1013 869 1253 645 
Q 1494 422 1959 422 
Q 2563 422 2898 753 
Q 3234 1084 3378 1831 
L 3928 4666 
L 4563 4666 
L 4000 1753 
Q 3816 809 3300 359 
Q 2784 -91 1888 -91 
Q 1188 -91 780 261 
Q 372 613 372 1216 
Q 372 1325 387 1461 
Q 403 1597 434 1753 
L 991 4666 
z
" transform="scale(0.015625)"/>
     </defs>
     <use xlink:href="#DejaVuSans-Oblique-38" transform="translate(0 0.09375)"/>
     <use xlink:href="#DejaVuSans-56" transform="translate(73.193359 -14.906201) scale(0.7)"/>
     <use xlink:href="#DejaVuSans-44" transform="translate(109.663086 -14.906201) scale(0.7)"/>
     <use xlink:href="#DejaVuSans-49" transform="translate(152.558594 -14.906201) scale(0.7)"/>
     <use xlink:href="#DejaVuSans-48" transform="translate(177.202148 -14.906201) scale(0.7)"/>
    </g>
   </g>
  </g>
  <g id="axes_2">
   <g id="patch_10">
    <path d="M 311.496563 128.967435 
L 503.70547 128.967435 
L 503.70547 22.318125 
L 311.496563 22.318125 
z
" style="fill: #ffffff"/>
   </g>
   <g id="FillBetweenPolyCollection_2">
    <defs>
     <path id="m0fe4bd2a69" d="M 316.936438 -119.179521 
L 316.936438 -67.474476 
L 498.265595 -67.474476 
L 498.265595 -119.179521 
L 498.265595 -119.179521 
L 316.936438 -119.179521 
z
" style="stroke: #0f4d92; stroke-opacity: 0.1"/>
    </defs>
    <g clip-path="url(#pa189d38963)">
     <use xlink:href="#m0fe4bd2a69" x="0" y="168.969779" style="fill: #0f4d92; fill-opacity: 0.1; stroke: #0f4d92; stroke-opacity: 0.1"/>
    </g>
   </g>
   <g id="matplotlib.axis_3">
    <g id="xtick_6">
     <g id="line2d_19">
      <path d="M 332.047201 128.967435 
L 332.047201 22.318125 
" clip-path="url(#pa189d38963)" style="fill: none; stroke: #eeeeee; stroke-width: 0.5; stroke-linecap: square"/>
     </g>
     <g id="line2d_20">
      <g>
       <use xlink:href="#m69ef4bdbd2" x="332.047201" y="128.967435" style="stroke: #000000; stroke-width: 0.8"/>
      </g>
     </g>
     <g id="text_18">
      <!-- −0.2 -->
      <g transform="translate(319.905795 143.565091) scale(0.1 -0.1)">
       <use xlink:href="#DejaVuSans-c9c"/>
       <use xlink:href="#DejaVuSans-13" transform="translate(83.796875 0)"/>
       <use xlink:href="#DejaVuSans-11" transform="translate(147.421875 0)"/>
       <use xlink:href="#DejaVuSans-15" transform="translate(179.203125 0)"/>
      </g>
     </g>
    </g>
    <g id="xtick_7">
     <g id="line2d_21">
      <path d="M 369.824109 128.967435 
L 369.824109 22.318125 
" clip-path="url(#pa189d38963)" style="fill: none; stroke: #eeeeee; stroke-width: 0.5; stroke-linecap: square"/>
     </g>
     <g id="line2d_22">
      <g>
       <use xlink:href="#m69ef4bdbd2" x="369.824109" y="128.967435" style="stroke: #000000; stroke-width: 0.8"/>
      </g>
     </g>
     <g id="text_19">
      <!-- −0.1 -->
      <g transform="translate(357.682703 143.565091) scale(0.1 -0.1)">
       <use xlink:href="#DejaVuSans-c9c"/>
       <use xlink:href="#DejaVuSans-13" transform="translate(83.796875 0)"/>
       <use xlink:href="#DejaVuSans-11" transform="translate(147.421875 0)"/>
       <use xlink:href="#DejaVuSans-14" transform="translate(179.203125 0)"/>
      </g>
     </g>
    </g>
    <g id="xtick_8">
     <g id="line2d_23">
      <path d="M 407.601017 128.967435 
L 407.601017 22.318125 
" clip-path="url(#pa189d38963)" style="fill: none; stroke: #eeeeee; stroke-width: 0.5; stroke-linecap: square"/>
     </g>
     <g id="line2d_24">
      <g>
       <use xlink:href="#m69ef4bdbd2" x="407.601017" y="128.967435" style="stroke: #000000; stroke-width: 0.8"/>
      </g>
     </g>
     <g id="text_20">
      <!-- 0.0 -->
      <g transform="translate(399.649454 143.565091) scale(0.1 -0.1)">
       <use xlink:href="#DejaVuSans-13"/>
       <use xlink:href="#DejaVuSans-11" transform="translate(63.625 0)"/>
       <use xlink:href="#DejaVuSans-13" transform="translate(95.40625 0)"/>
      </g>
     </g>
    </g>
    <g id="xtick_9">
     <g id="line2d_25">
      <path d="M 445.377924 128.967435 
L 445.377924 22.318125 
" clip-path="url(#pa189d38963)" style="fill: none; stroke: #eeeeee; stroke-width: 0.5; stroke-linecap: square"/>
     </g>
     <g id="line2d_26">
      <g>
       <use xlink:href="#m69ef4bdbd2" x="445.377924" y="128.967435" style="stroke: #000000; stroke-width: 0.8"/>
      </g>
     </g>
     <g id="text_21">
      <!-- 0.1 -->
      <g transform="translate(437.426362 143.565091) scale(0.1 -0.1)">
       <use xlink:href="#DejaVuSans-13"/>
       <use xlink:href="#DejaVuSans-11" transform="translate(63.625 0)"/>
       <use xlink:href="#DejaVuSans-14" transform="translate(95.40625 0)"/>
      </g>
     </g>
    </g>
    <g id="xtick_10">
     <g id="line2d_27">
      <path d="M 483.154832 128.967435 
L 483.154832 22.318125 
" clip-path="url(#pa189d38963)" style="fill: none; stroke: #eeeeee; stroke-width: 0.5; stroke-linecap: square"/>
     </g>
     <g id="line2d_28">
      <g>
       <use xlink:href="#m69ef4bdbd2" x="483.154832" y="128.967435" style="stroke: #000000; stroke-width: 0.8"/>
      </g>
     </g>
     <g id="text_22">
      <!-- 0.2 -->
      <g transform="translate(475.20327 143.565091) scale(0.1 -0.1)">
       <use xlink:href="#DejaVuSans-13"/>
       <use xlink:href="#DejaVuSans-11" transform="translate(63.625 0)"/>
       <use xlink:href="#DejaVuSans-15" transform="translate(95.40625 0)"/>
      </g>
     </g>
    </g>
    <g id="text_23">
     <!-- Acceleration $a$ (m/s$^2$) -->
     <g transform="translate(354.801017 159.367435) scale(0.1 -0.1)">
      <use xlink:href="#DejaVuSans-24" transform="translate(0 0.746875)"/>
      <use xlink:href="#DejaVuSans-46" transform="translate(66.408203 0.746875)"/>
      <use xlink:href="#DejaVuSans-46" transform="translate(121.388672 0.746875)"/>
      <use xlink:href="#DejaVuSans-48" transform="translate(176.369141 0.746875)"/>
      <use xlink:href="#DejaVuSans-4f" transform="translate(237.892578 0.746875)"/>
      <use xlink:href="#DejaVuSans-48" transform="translate(265.675781 0.746875)"/>
      <use xlink:href="#DejaVuSans-55" transform="translate(327.199219 0.746875)"/>
      <use xlink:href="#DejaVuSans-44" transform="translate(368.3125 0.746875)"/>
      <use xlink:href="#DejaVuSans-57" transform="translate(429.591797 0.746875)"/>
      <use xlink:href="#DejaVuSans-4c" transform="translate(468.800781 0.746875)"/>
      <use xlink:href="#DejaVuSans-52" transform="translate(496.583984 0.746875)"/>
      <use xlink:href="#DejaVuSans-51" transform="translate(557.765625 0.746875)"/>
      <use xlink:href="#DejaVuSans-3" transform="translate(621.144531 0.746875)"/>
      <use xlink:href="#DejaVuSans-Oblique-44" transform="translate(652.931641 0.746875)"/>
      <use xlink:href="#DejaVuSans-3" transform="translate(714.210938 0.746875)"/>
      <use xlink:href="#DejaVuSans-b" transform="translate(745.998047 0.746875)"/>
      <use xlink:href="#DejaVuSans-50" transform="translate(785.011719 0.746875)"/>
      <use xlink:href="#DejaVuSans-12" transform="translate(882.423828 0.746875)"/>
      <use xlink:href="#DejaVuSans-56" transform="translate(916.115234 0.746875)"/>
      <use xlink:href="#DejaVuSans-15" transform="translate(969.171875 42.046875) scale(0.7)"/>
      <use xlink:href="#DejaVuSans-c" transform="translate(1016.442383 0.746875)"/>
     </g>
    </g>
   </g>
   <g id="matplotlib.axis_4">
    <g id="ytick_4">
     <g id="line2d_29">
      <path d="M 311.496563 105.267588 
L 503.70547 105.267588 
" clip-path="url(#pa189d38963)" style="fill: none; stroke: #eeeeee; stroke-width: 0.5; stroke-linecap: square"/>
     </g>
     <g id="line2d_30">
      <g>
       <use xlink:href="#me9027f14f7" x="311.496563" y="105.267588" style="stroke: #000000; stroke-width: 0.8"/>
      </g>
     </g>
     <g id="text_24">
      <!-- −0.005 -->
      <g transform="translate(267.488751 109.066416) scale(0.1 -0.1)">
       <defs>
        <path id="DejaVuSans-18" d="M 691 4666 
L 3169 4666 
L 3169 4134 
L 1269 4134 
L 1269 2991 
Q 1406 3038 1543 3061 
Q 1681 3084 1819 3084 
Q 2600 3084 3056 2656 
Q 3513 2228 3513 1497 
Q 3513 744 3044 326 
Q 2575 -91 1722 -91 
Q 1428 -91 1123 -41 
Q 819 9 494 109 
L 494 744 
Q 775 591 1075 516 
Q 1375 441 1709 441 
Q 2250 441 2565 725 
Q 2881 1009 2881 1497 
Q 2881 1984 2565 2268 
Q 2250 2553 1709 2553 
Q 1456 2553 1204 2497 
Q 953 2441 691 2322 
L 691 4666 
z
" transform="scale(0.015625)"/>
       </defs>
       <use xlink:href="#DejaVuSans-c9c"/>
       <use xlink:href="#DejaVuSans-13" transform="translate(83.796875 0)"/>
       <use xlink:href="#DejaVuSans-11" transform="translate(147.421875 0)"/>
       <use xlink:href="#DejaVuSans-13" transform="translate(179.203125 0)"/>
       <use xlink:href="#DejaVuSans-13" transform="translate(242.828125 0)"/>
       <use xlink:href="#DejaVuSans-18" transform="translate(306.453125 0)"/>
      </g>
     </g>
    </g>
    <g id="ytick_5">
     <g id="line2d_31">
      <path d="M 311.496563 75.64278 
L 503.70547 75.64278 
" clip-path="url(#pa189d38963)" style="fill: none; stroke: #eeeeee; stroke-width: 0.5; stroke-linecap: square"/>
     </g>
     <g id="line2d_32">
      <g>
       <use xlink:href="#me9027f14f7" x="311.496563" y="75.64278" style="stroke: #000000; stroke-width: 0.8"/>
      </g>
     </g>
     <g id="text_25">
      <!-- 0.000 -->
      <g transform="translate(275.868438 79.441608) scale(0.1 -0.1)">
       <use xlink:href="#DejaVuSans-13"/>
       <use xlink:href="#DejaVuSans-11" transform="translate(63.625 0)"/>
       <use xlink:href="#DejaVuSans-13" transform="translate(95.40625 0)"/>
       <use xlink:href="#DejaVuSans-13" transform="translate(159.03125 0)"/>
       <use xlink:href="#DejaVuSans-13" transform="translate(222.65625 0)"/>
      </g>
     </g>
    </g>
    <g id="ytick_6">
     <g id="line2d_33">
      <path d="M 311.496563 46.017972 
L 503.70547 46.017972 
" clip-path="url(#pa189d38963)" style="fill: none; stroke: #eeeeee; stroke-width: 0.5; stroke-linecap: square"/>
     </g>
     <g id="line2d_34">
      <g>
       <use xlink:href="#me9027f14f7" x="311.496563" y="46.017972" style="stroke: #000000; stroke-width: 0.8"/>
      </g>
     </g>
     <g id="text_26">
      <!-- 0.005 -->
      <g transform="translate(275.868438 49.8168) scale(0.1 -0.1)">
       <use xlink:href="#DejaVuSans-13"/>
       <use xlink:href="#DejaVuSans-11" transform="translate(63.625 0)"/>
       <use xlink:href="#DejaVuSans-13" transform="translate(95.40625 0)"/>
       <use xlink:href="#DejaVuSans-13" transform="translate(159.03125 0)"/>
       <use xlink:href="#DejaVuSans-18" transform="translate(222.65625 0)"/>
      </g>
     </g>
    </g>
   </g>
   <g id="patch_11">
    <path d="M 498.265595 169.969779 
L 498.265595 -1 
M 316.936438 -1 
L 316.936438 169.969779 
" clip-path="url(#pa189d38963)" style="fill: none; stroke-dasharray: 3.6,1.8; stroke-dashoffset: 0; stroke: #272727; stroke-width: 0.9; stroke-linejoin: miter"/>
   </g>
   <g id="patch_12">
    <path d="M 425.733932 169.969779 
L 425.733932 -1 
M 389.468101 -1 
L 389.468101 169.969779 
" clip-path="url(#pa189d38963)" style="fill: none; opacity: 0.75; stroke-dasharray: 1.05,1.05; stroke-dashoffset: 0; stroke: #272727; stroke-width: 0.7; stroke-linejoin: miter"/>
   </g>
   <g id="patch_13">
    <path d="M 311.496563 128.967435 
L 311.496563 22.318125 
" style="fill: none; stroke: #000000; stroke-width: 0.8; stroke-linejoin: miter; stroke-linecap: square"/>
   </g>
   <g id="patch_14">
    <path d="M 503.70547 128.967435 
L 503.70547 22.318125 
" style="fill: none; stroke: #000000; stroke-width: 0.8; stroke-linejoin: miter; stroke-linecap: square"/>
   </g>
   <g id="patch_15">
    <path d="M 311.496563 128.967435 
L 503.70547 128.967435 
" style="fill: none; stroke: #000000; stroke-width: 0.8; stroke-linejoin: miter; stroke-linecap: square"/>
   </g>
   <g id="patch_16">
    <path d="M 311.496563 22.318125 
L 503.70547 22.318125 
" style="fill: none; stroke: #000000; stroke-width: 0.8; stroke-linejoin: miter; stroke-linecap: square"/>
   </g>
   <g id="line2d_35">
    <path d="M 311.496563 101.495302 
L 503.70547 101.495302 
" clip-path="url(#pa189d38963)" style="fill: none; stroke: #0f4d92; stroke-width: 1.1; stroke-linecap: square"/>
   </g>
   <g id="line2d_36">
    <path d="M 311.496563 49.790258 
L 503.70547 49.790258 
" clip-path="url(#pa189d38963)" style="fill: none; stroke: #0f4d92; stroke-width: 1.1; stroke-linecap: square"/>
   </g>
   <g id="line2d_37">
    <path d="M 316.936438 40.222156 
L 498.265595 136.845733 
" clip-path="url(#pa189d38963)" style="fill: none; stroke: #b64342; stroke-width: 1.1; stroke-linecap: square"/>
   </g>
   <g id="text_27">
    <!-- (b) Stand-on step -->
    <g transform="translate(355.117892 16.318125) scale(0.12 -0.12)">
     <defs>
      <path id="DejaVuSans-36" d="M 3425 4513 
L 3425 3897 
Q 3066 4069 2747 4153 
Q 2428 4238 2131 4238 
Q 1616 4238 1336 4038 
Q 1056 3838 1056 3469 
Q 1056 3159 1242 3001 
Q 1428 2844 1947 2747 
L 2328 2669 
Q 3034 2534 3370 2195 
Q 3706 1856 3706 1288 
Q 3706 609 3251 259 
Q 2797 -91 1919 -91 
Q 1588 -91 1214 -16 
Q 841 59 441 206 
L 441 856 
Q 825 641 1194 531 
Q 1563 422 1919 422 
Q 2459 422 2753 634 
Q 3047 847 3047 1241 
Q 3047 1584 2836 1778 
Q 2625 1972 2144 2069 
L 1759 2144 
Q 1053 2284 737 2584 
Q 422 2884 422 3419 
Q 422 4038 858 4394 
Q 1294 4750 2059 4750 
Q 2388 4750 2728 4690 
Q 3069 4631 3425 4513 
z
" transform="scale(0.015625)"/>
     </defs>
     <use xlink:href="#DejaVuSans-b"/>
     <use xlink:href="#DejaVuSans-45" transform="translate(39.015625 0)"/>
     <use xlink:href="#DejaVuSans-c" transform="translate(102.5 0)"/>
     <use xlink:href="#DejaVuSans-3" transform="translate(141.515625 0)"/>
     <use xlink:href="#DejaVuSans-36" transform="translate(173.296875 0)"/>
     <use xlink:href="#DejaVuSans-57" transform="translate(236.78125 0)"/>
     <use xlink:href="#DejaVuSans-44" transform="translate(275.984375 0)"/>
     <use xlink:href="#DejaVuSans-51" transform="translate(337.265625 0)"/>
     <use xlink:href="#DejaVuSans-47" transform="translate(400.640625 0)"/>
     <use xlink:href="#DejaVuSans-10" transform="translate(464.125 0)"/>
     <use xlink:href="#DejaVuSans-52" transform="translate(502.0625 0)"/>
     <use xlink:href="#DejaVuSans-51" transform="translate(563.25 0)"/>
     <use xlink:href="#DejaVuSans-3" transform="translate(626.625 0)"/>
     <use xlink:href="#DejaVuSans-56" transform="translate(658.40625 0)"/>
     <use xlink:href="#DejaVuSans-57" transform="translate(710.5 0)"/>
     <use xlink:href="#DejaVuSans-48" transform="translate(749.703125 0)"/>
     <use xlink:href="#DejaVuSans-53" transform="translate(811.234375 0)"/>
    </g>
   </g>
   <g id="patch_17">
    <path d="M 401.556711 101.495302 
L 413.645322 101.495302 
L 413.645322 91.776309 
L 413.433241 91.646722 
L 410.767081 90.22127 
L 401.768792 85.426567 
L 401.556711 85.426567 
z
" clip-path="url(#pa189d38963)" style="fill: #5fa85f; opacity: 0.38; stroke: #5fa85f; stroke-linejoin: miter"/>
   </g>
   <g id="PathCollection_2">
    <g clip-path="url(#pa189d38963)">
     <use xlink:href="#m97e7f6c687" x="410.435389" y="101.495302" style="fill: #ffffff; stroke: #272727; stroke-width: 1.1"/>
    </g>
   </g>
   <g id="text_28">
    <!-- $u_{\mathrm{safe}}$ -->
    <g transform="translate(416.435389 108.495302) scale(0.06 -0.06)">
     <use xlink:href="#DejaVuSans-Oblique-58" transform="translate(0 0.3125)"/>
     <use xlink:href="#DejaVuSans-56" transform="translate(63.378906 -14.687451) scale(0.7)"/>
     <use xlink:href="#DejaVuSans-44" transform="translate(99.848633 -14.687451) scale(0.7)"/>
     <use xlink:href="#DejaVuSans-49" transform="translate(142.744141 -14.687451) scale(0.7)"/>
     <use xlink:href="#DejaVuSans-48" transform="translate(167.387695 -14.687451) scale(0.7)"/>
    </g>
   </g>
   <g id="text_29">
    <!-- $|\omega| \leq \varepsilon_\omega$  (hold course) -->
    <g style="fill: #0f4d92" transform="translate(319.936438 45.541039) scale(0.052 -0.052)">
     <defs>
      <path id="DejaVuSans-5f" d="M 1344 4891 
L 1344 -1509 
L 813 -1509 
L 813 4891 
L 1344 4891 
z
" transform="scale(0.015625)"/>
      <path id="DejaVuSans-Oblique-349" d="M 1263 1888 
Q 925 1963 778 2166 
Q 669 2309 669 2503 
Q 669 3034 1175 3344 
Q 1575 3588 2188 3588 
Q 2425 3588 2684 3550 
Q 2944 3513 3234 3438 
L 3134 2916 
Q 2847 3006 2606 3047 
Q 2359 3088 2138 3088 
Q 1766 3088 1522 2944 
Q 1228 2772 1228 2522 
Q 1228 2356 1381 2241 
Q 1563 2103 1925 2103 
L 2409 2103 
L 2319 1628 
L 1856 1628 
Q 1425 1628 1172 1469 
Q 828 1253 828 916 
Q 828 703 1013 563 
Q 1244 388 1716 388 
Q 2006 388 2284 444 
Q 2563 503 2806 619 
L 2700 84 
Q 2403 -3 2131 -47 
Q 1859 -91 1609 -91 
Q 866 -91 516 194 
Q 250 413 250 781 
Q 250 1278 600 1584 
Q 859 1813 1263 1888 
z
" transform="scale(0.015625)"/>
      <path id="DejaVuSans-4b" d="M 3513 2113 
L 3513 0 
L 2938 0 
L 2938 2094 
Q 2938 2591 2744 2837 
Q 2550 3084 2163 3084 
Q 1697 3084 1428 2787 
Q 1159 2491 1159 1978 
L 1159 0 
L 581 0 
L 581 4863 
L 1159 4863 
L 1159 2956 
Q 1366 3272 1645 3428 
Q 1925 3584 2291 3584 
Q 2894 3584 3203 3211 
Q 3513 2838 3513 2113 
z
" transform="scale(0.015625)"/>
     </defs>
     <use xlink:href="#DejaVuSans-5f" transform="translate(0 0.578125)"/>
     <use xlink:href="#DejaVuSans-Oblique-35d" transform="translate(33.691406 0.578125)"/>
     <use xlink:href="#DejaVuSans-5f" transform="translate(117.431641 0.578125)"/>
     <use xlink:href="#DejaVuSans-cee" transform="translate(170.605469 0.578125)"/>
     <use xlink:href="#DejaVuSans-Oblique-349" transform="translate(273.876953 0.578125)"/>
     <use xlink:href="#DejaVuSans-Oblique-35d" transform="translate(327.929688 -14.421826) scale(0.7)"/>
     <use xlink:href="#DejaVuSans-3" transform="translate(389.282227 0.578125)"/>
     <use xlink:href="#DejaVuSans-3" transform="translate(421.069336 0.578125)"/>
     <use xlink:href="#DejaVuSans-b" transform="translate(452.856445 0.578125)"/>
     <use xlink:href="#DejaVuSans-4b" transform="translate(491.870117 0.578125)"/>
     <use xlink:href="#DejaVuSans-52" transform="translate(555.249023 0.578125)"/>
     <use xlink:href="#DejaVuSans-4f" transform="translate(616.430664 0.578125)"/>
     <use xlink:href="#DejaVuSans-47" transform="translate(644.213867 0.578125)"/>
     <use xlink:href="#DejaVuSans-3" transform="translate(707.69043 0.578125)"/>
     <use xlink:href="#DejaVuSans-46" transform="translate(739.477539 0.578125)"/>
     <use xlink:href="#DejaVuSans-52" transform="translate(794.458008 0.578125)"/>
     <use xlink:href="#DejaVuSans-58" transform="translate(855.639648 0.578125)"/>
     <use xlink:href="#DejaVuSans-55" transform="translate(919.018555 0.578125)"/>
     <use xlink:href="#DejaVuSans-56" transform="translate(960.131836 0.578125)"/>
     <use xlink:href="#DejaVuSans-48" transform="translate(1012.231445 0.578125)"/>
     <use xlink:href="#DejaVuSans-c" transform="translate(1073.754883 0.578125)"/>
    </g>
   </g>
   <g id="text_30">
    <!-- one-step collision-free -->
    <g style="fill: #b64342" transform="translate(428.672347 109.85621) scale(0.052 -0.052)">
     <use xlink:href="#DejaVuSans-52"/>
     <use xlink:href="#DejaVuSans-51" transform="translate(61.1875 0)"/>
     <use xlink:href="#DejaVuSans-48" transform="translate(124.5625 0)"/>
     <use xlink:href="#DejaVuSans-10" transform="translate(186.09375 0)"/>
     <use xlink:href="#DejaVuSans-56" transform="translate(222.171875 0)"/>
     <use xlink:href="#DejaVuSans-57" transform="translate(274.265625 0)"/>
     <use xlink:href="#DejaVuSans-48" transform="translate(313.46875 0)"/>
     <use xlink:href="#DejaVuSans-53" transform="translate(375 0)"/>
     <use xlink:href="#DejaVuSans-3" transform="translate(438.484375 0)"/>
     <use xlink:href="#DejaVuSans-46" transform="translate(470.265625 0)"/>
     <use xlink:href="#DejaVuSans-52" transform="translate(525.25 0)"/>
     <use xlink:href="#DejaVuSans-4f" transform="translate(586.4375 0)"/>
     <use xlink:href="#DejaVuSans-4f" transform="translate(614.21875 0)"/>
     <use xlink:href="#DejaVuSans-4c" transform="translate(642 0)"/>
     <use xlink:href="#DejaVuSans-56" transform="translate(669.78125 0)"/>
     <use xlink:href="#DejaVuSans-4c" transform="translate(721.875 0)"/>
     <use xlink:href="#DejaVuSans-52" transform="translate(749.65625 0)"/>
     <use xlink:href="#DejaVuSans-51" transform="translate(810.84375 0)"/>
     <use xlink:href="#DejaVuSans-10" transform="translate(874.21875 0)"/>
     <use xlink:href="#DejaVuSans-49" transform="translate(910.296875 0)"/>
     <use xlink:href="#DejaVuSans-55" transform="translate(945.5 0)"/>
     <use xlink:href="#DejaVuSans-48" transform="translate(984.40625 0)"/>
     <use xlink:href="#DejaVuSans-48" transform="translate(1045.9375 0)"/>
    </g>
   </g>
   <g id="text_31">
    <!-- $U_{\mathrm{safe}}$ -->
    <g style="fill: #272727" transform="translate(400.885311 101.160791) scale(0.064 -0.064)">
     <use xlink:href="#DejaVuSans-Oblique-38" transform="translate(0 0.09375)"/>
     <use xlink:href="#DejaVuSans-56" transform="translate(73.193359 -14.906201) scale(0.7)"/>
     <use xlink:href="#DejaVuSans-44" transform="translate(109.663086 -14.906201) scale(0.7)"/>
     <use xlink:href="#DejaVuSans-49" transform="translate(152.558594 -14.906201) scale(0.7)"/>
     <use xlink:href="#DejaVuSans-48" transform="translate(177.202148 -14.906201) scale(0.7)"/>
    </g>
   </g>
  </g>
 </g>
 <defs>
  <clipPath id="p5a29d24d81">
   <rect x="58.847656" y="22.318125" width="192.208907" height="106.64931"/>
  </clipPath>
  <clipPath id="pa189d38963">
   <rect x="311.496563" y="22.318125" width="192.208907" height="106.64931"/>
  </clipPath>
 </defs>
</svg>
